<svg id="Layer_1" data-name="Layer 1" xmlns="http://www.w3.org/2000/svg" viewBox="0 0 32 43"><defs><style>.cls-1{fill:solid;stroke:#FFFFFF;}</style></defs><title/><g><path class="cls-1" d="M31,33.85l-9.64-18V5.59c1.28-.53,2.13-1.31,2.13-2.37C23.44,1,19.7,0,16,0S8.56,1,8.56,3.23c0,1.06.84,1.84,2.13,2.36V15.85L1,33.85C-0.22,36.21-.34,38.48.7,40.26S3.78,43,6.43,43H25.56c2.65,0,4.69-1,5.73-2.75s0.92-4-.34-6.4h0ZM16,2.15c2.94,0,4.72.68,5.22,1.08-0.5.4-2.28,1.07-5.22,1.07s-4.72-.68-5.22-1.07C11.28,2.83,13.06,2.15,16,2.15Zm0,4.3a18.21,18.21,0,0,0,3.19-.27v9.94a0.68,0.68,0,0,0,0,.11v0.21l0,0.09a0,0,0,0,0,0,0l0,0.1L26.52,30.1c-1.54,0-2.6-.69-4-1.89a28.1,28.1,0,0,0-3.36-2.55,4.24,4.24,0,0,0-8-1.91,12.53,12.53,0,0,0-2.67.65l4.15-7.76,0-.1v0l0-.08V16.23a0.64,0.64,0,0,0,0-.11V6.18A18.42,18.42,0,0,0,16,6.45h0Zm-1.06,17.2a2.15,2.15,0,1,1-2.13,2.15A2.14,2.14,0,0,1,14.93,23.65Zm14.53,15.5c-0.64,1.1-2,1.7-3.9,1.7H6.43c-1.87,0-3.26-.6-3.9-1.7S2,36.54,2.91,34.87l3.83-7.15A10.47,10.47,0,0,1,10.69,26a4.24,4.24,0,0,0,8,1.86,27.38,27.38,0,0,1,2.5,2c1.72,1.49,3.23,2.41,5.47,2.41a6.88,6.88,0,0,0,1-.07l1.45,2.7c0.89,1.67,1,3.19.38,4.28h0ZM9.62,32.25a3.23,3.23,0,1,0,3.19,3.23A3.21,3.21,0,0,0,9.62,32.25Zm0,4.3a1.08,1.08,0,1,1,1.06-1.07A1.07,1.07,0,0,1,9.62,36.55ZM16,32.25a1.05,1.05,0,0,0-.75.32,1.1,1.1,0,0,0-.31.76,1.08,1.08,0,0,0,.31.76,1,1,0,0,0,1.5,0,1.08,1.08,0,0,0,0-1.52A1.07,1.07,0,0,0,16,32.25Z"/></g></svg>